<svg xmlns="http://www.w3.org/2000/svg" width="14.111" height="15.059" viewBox="0 0 14.111 15.059">
  <g id="logout" transform="translate(-19.992 -18)">
    <path id="Path_352" data-name="Path 352" d="M26.693,33.05a7.055,7.055,0,0,1-3.969-12.621.941.941,0,0,1,1.5.757.919.919,0,0,1-.348.729,5.173,5.173,0,1,0,6.349,0,.922.922,0,0,1-.357-.729h0a.941.941,0,0,1,1.5-.757A7.055,7.055,0,0,1,26.693,33.05Zm-.586-14.109v4.233a.941.941,0,1,0,1.881,0V18.941a.941.941,0,1,0-1.881,0Z" transform="translate(0)" fill="#fff"/>
  </g>
</svg>
