<svg id="Logo" xmlns="http://www.w3.org/2000/svg" width="364.919" height="36" viewBox="0 0 364.919 36">
  <text id="Logo-2" data-name="Logo" transform="translate(78.919 27)" fill="#fff" font-size="26" font-family="Poppins-Medium, Poppins" font-weight="500"><tspan x="0" y="0">Intelligent DevSecOps</tspan></text>
  <g id="Group_1397" data-name="Group 1397" transform="translate(-1270.082 -508.999)">
    <path id="Path_710" data-name="Path 710" d="M238.914,2.892l-1.462,4.3h-2.8L237.394,0h3.053L243.2,7.192h-2.807Zm-3.565-.82V0h-6.961V2.072h2.036v5.12h2.892V2.072Zm-10.543.82-1.462,4.3h-2.807L223.286,0h3.039l2.749,7.192h-2.807Zm-3.565-.82V0H214.28V2.072h2.036v5.12h2.874V2.072Z" transform="translate(1075.516 514)" fill="#fff" fill-rule="evenodd"/>
    <path id="Path_711" data-name="Path 711" d="M236.01,31.249V28.215l2.389-4.162h-1.484L236.05,25.9c-.245.521-.446.967-.624,1.426h0c-.2-.486-.383-.891-.628-1.422l-.856-1.849h-1.533l2.277,4.2v2.995ZM231.732,30a3.819,3.819,0,0,1-1.435.263,2.351,2.351,0,0,1-2.5-2.589,2.4,2.4,0,0,1,2.522-2.647,3.436,3.436,0,0,1,1.4.281L232,24.262a3.957,3.957,0,0,0-1.742-.321,3.626,3.626,0,0,0-3.855,3.8,3.4,3.4,0,0,0,3.676,3.623,4.608,4.608,0,0,0,1.863-.325Zm-10.949,1.252V28.674c0-1.181,0-2.13-.071-3.066h.036a22.97,22.97,0,0,0,1.288,2.478l1.881,3.168h1.364v-7.2h-1.212v2.513c0,1.1.022,2.023.116,2.981h-.027a19.515,19.515,0,0,0-1.225-2.411l-1.858-3.088h-1.5v7.2Zm-6.346-3.026.557-1.782c.125-.446.236-.927.343-1.337h.022c.107.419.227.891.365,1.337l.566,1.782Zm2.072.989.651,2.036h1.408l-2.335-7.2h-1.649l-2.308,7.2h1.359l.61-2.036Zm-7.17,2.036h1.315V25.158h2.072V24.053h-5.441v1.105h2.054Zm-5.6,0h4.269V30.144h-2.954V24.053H203.72Zm-7.13-7.2V28.17c0,2.264,1.083,3.2,2.741,3.2,1.738,0,2.879-.985,2.879-3.2V24.053h-1.315v4.2c0,1.408-.57,2.059-1.515,2.059s-1.475-.655-1.475-2.059v-4.2ZM190.779,30.9a4.167,4.167,0,0,0,1.943.446c1.858,0,2.732-1,2.732-2.161,0-1.034-.6-1.662-1.849-2.139-.963-.365-1.377-.628-1.377-1.176,0-.423.352-.869,1.185-.869a3.119,3.119,0,0,1,1.439.343l.312-1.061a3.8,3.8,0,0,0-1.725-.356c-1.56,0-2.545.891-2.545,2.068,0,1.029.758,1.667,1.947,2.09.891.33,1.274.651,1.274,1.194s-.472.98-1.31.98a3.632,3.632,0,0,1-1.738-.446Zm-5.686.348V28.674c0-1.181,0-2.13-.067-3.066h.031a23.008,23.008,0,0,0,1.292,2.478l1.876,3.168h1.364v-7.2h-1.217v2.513c0,1.1.027,2.023.116,2.981h-.022a20.151,20.151,0,0,0-1.225-2.411l-1.858-3.088h-1.5v7.2Zm-5.713-.936c-1.257,0-1.992-1.208-1.987-2.638s.691-2.674,2-2.674,1.983,1.283,1.983,2.638c0,1.506-.717,2.674-1.987,2.674Zm-.036,1.052c1.97,0,3.431-1.377,3.431-3.788a3.319,3.319,0,0,0-3.333-3.641c-2.094,0-3.427,1.56-3.427,3.77,0,2.1,1.283,3.659,3.32,3.659ZM175.361,30a3.8,3.8,0,0,1-1.435.263,2.351,2.351,0,0,1-2.5-2.589,2.4,2.4,0,0,1,2.522-2.647,3.436,3.436,0,0,1,1.4.281l.285-1.043a3.957,3.957,0,0,0-1.742-.321,3.625,3.625,0,0,0-3.85,3.8,3.4,3.4,0,0,0,3.672,3.623,4.648,4.648,0,0,0,1.867-.325Z" transform="translate(1100.042 500.736)" fill="#fff" fill-rule="evenodd"/>
    <path id="Path_712" data-name="Path 712" d="M211.272,49.315a3.534,3.534,0,0,1,.811-.067c.842,0,1.39.365,1.39,1.145,0,.709-.544,1.176-1.43,1.176h-.771ZM209.98,55.46h1.292V52.532h.655c.744,0,1.083.321,1.288,1.252a9.5,9.5,0,0,0,.477,1.684h1.337a15.375,15.375,0,0,1-.561-1.992,1.81,1.81,0,0,0-1-1.381v-.031a1.885,1.885,0,0,0,1.3-1.782,1.782,1.782,0,0,0-.611-1.43,3.565,3.565,0,0,0-2.206-.575,10.784,10.784,0,0,0-1.974.152Zm-11.35-.348a4.167,4.167,0,0,0,1.943.446c1.858,0,2.732-1,2.732-2.161,0-1.034-.6-1.662-1.849-2.139-.963-.365-1.377-.624-1.377-1.176,0-.446.352-.865,1.185-.865a3.119,3.119,0,0,1,1.439.339l.312-1.061a3.855,3.855,0,0,0-1.725-.356c-1.56,0-2.545.891-2.545,2.068,0,1.029.758,1.667,1.947,2.09.891.33,1.274.651,1.274,1.194s-.472.98-1.31.98a3.632,3.632,0,0,1-1.738-.446Zm9.893-3.917h-2.709V49.346h2.87V48.268H204.5V55.46h4.345V54.377h-3.03V52.269h2.709Zm10.739,4.265,2.487-7.192h-1.4l-1.056,3.289c-.281.891-.544,1.751-.731,2.6h0c-.187-.891-.446-1.711-.709-2.62l-.98-3.271h-1.435l2.331,7.192Zm3.262-7.192V55.46h1.315V48.268Zm7.763,5.945a3.783,3.783,0,0,1-1.43.258,2.351,2.351,0,0,1-2.5-2.589,2.391,2.391,0,0,1,2.522-2.643,3.431,3.431,0,0,1,1.4.281l.285-1.047a4.01,4.01,0,0,0-1.742-.321,3.625,3.625,0,0,0-3.85,3.8,3.4,3.4,0,0,0,3.672,3.623,4.634,4.634,0,0,0,1.867-.325Zm5.347-3.017h-2.7V49.346H235.8V48.268h-4.189V55.46h4.345V54.377h-3.03V52.269h2.709Zm1.159,3.917a4.167,4.167,0,0,0,1.943.446c1.858,0,2.727-1,2.727-2.161,0-1.034-.6-1.662-1.849-2.139-.958-.365-1.377-.624-1.377-1.176,0-.446.356-.865,1.19-.865a3.168,3.168,0,0,1,1.439.339l.312-1.061a3.855,3.855,0,0,0-1.725-.356c-1.56,0-2.545.891-2.545,2.068,0,1.029.758,1.667,1.947,2.09.891.33,1.274.651,1.274,1.194s-.472.98-1.31.98a3.632,3.632,0,0,1-1.738-.446Z" transform="translate(1084.192 487.314)" fill="#fff" fill-rule="evenodd"/>
  </g>
</svg>
