<svg xmlns="http://www.w3.org/2000/svg" width="21" height="18" viewBox="0 0 21 18">
  <g id="major" transform="translate(-1760 -409)">
    <g id="Group_1211" data-name="Group 1211" transform="translate(1396 201)">
      <g id="Polygon_2" data-name="Polygon 2" transform="translate(364 208)" fill="#f7f7f7">
        <path d="M 17.51792907714844 17.49999809265137 L 3.482079029083252 17.49999809265137 C 2.938399076461792 17.49999809265137 2.452149152755737 17.21853828430176 2.181359052658081 16.74708938598633 C 1.910579085350037 16.27563858032227 1.912459015846252 15.7138090133667 2.186408996582031 15.2441987991333 L 9.204329490661621 3.213468790054321 C 9.47615909576416 2.747478723526001 9.960518836975098 2.469268798828125 10.49999904632568 2.469268798828125 C 11.03947925567627 2.469268798828125 11.52383899688721 2.747478723526001 11.79566860198975 3.213468790054321 L 18.81358909606934 15.2441987991333 C 19.08753967285156 15.7138090133667 19.08941841125488 16.27563858032227 18.81863975524902 16.74708938598633 C 18.54785919189453 17.21853828430176 18.06160926818848 17.49999809265137 17.51792907714844 17.49999809265137 Z" stroke="none"/>
        <path d="M 10.49999904632568 2.969268798828125 C 10.32729911804199 2.969268798828125 9.897429466247559 3.017608642578125 9.636219024658203 3.465398788452148 L 2.61829948425293 15.49612808227539 C 2.355049133300781 15.9473991394043 2.528249740600586 16.34713935852051 2.61492919921875 16.4980583190918 C 2.701608657836914 16.64897918701172 2.959629058837891 16.99999809265137 3.482078552246094 16.99999809265137 L 17.51792907714844 16.99999809265137 C 18.04036903381348 16.99999809265137 18.29838943481445 16.64897918701172 18.38506889343262 16.4980583190918 C 18.47174835205078 16.34713935852051 18.64494895935059 15.9473991394043 18.38169860839844 15.49612808227539 L 11.36377906799316 3.465398788452148 C 11.10256862640381 3.017608642578125 10.67269897460938 2.969268798828125 10.49999904632568 2.969268798828125 M 10.49999904632568 1.969270706176758 C 11.17083930969238 1.969270706176758 11.84167861938477 2.300024032592773 12.22755908966064 2.961528778076172 L 19.24547958374023 14.99225807189941 C 20.02324867248535 16.32556915283203 19.06150817871094 17.99999809265137 17.51792907714844 17.99999809265137 L 3.482078552246094 17.99999809265137 C 1.93848991394043 17.99999809265137 0.9767494201660156 16.32556915283203 1.754518508911133 14.99225807189941 L 8.772439002990723 2.961528778076172 C 9.158319473266602 2.300024032592773 9.829158782958984 1.969270706176758 10.49999904632568 1.969270706176758 Z" stroke="none" fill="#ffb265"/>
      </g>
      <line id="Line_320" data-name="Line 320" y2="8" transform="translate(374.5 213.5)" fill="none" stroke="#ffb265" stroke-width="1"/>
      <g id="Rectangle_1623" data-name="Rectangle 1623" transform="translate(374 223)" fill="#4d4f5c" stroke="#ffb265" stroke-width="1">
        <rect width="1" height="1" stroke="none"/>
        <rect x="0.5" y="0.5" fill="none"/>
      </g>
    </g>
  </g>
</svg>
